<svg xmlns="http://www.w3.org/2000/svg" xmlns:xlink="http://www.w3.org/1999/xlink" width="500" zoomAndPan="magnify" viewBox="0 0 375 374.999991" height="500" preserveAspectRatio="xMidYMid meet" version="1.0"><defs><clipPath id="id1"><path d="M 150.359375 93 L 224.609375 93 L 224.609375 200 L 150.359375 200 Z M 150.359375 93 " clip-rule="nonzero"/></clipPath></defs><g clip-path="url(#id1)"><path fill="#ffffff" d="M 165.457031 101.023438 L 217.289062 101.023438 L 217.289062 162.933594 C 217.289062 179.25 203.863281 192.636719 187.496094 192.636719 C 171.125 192.636719 157.699219 179.25 157.699219 162.933594 L 150.378906 162.933594 C 150.378906 183.296875 167.085938 199.933594 187.496094 199.933594 C 207.921875 199.933594 224.609375 183.277344 224.609375 162.933594 L 224.609375 93.726562 L 158.136719 93.726562 L 158.136719 115.816406 L 165.457031 115.816406 Z M 165.457031 101.023438 " fill-opacity="1" fill-rule="evenodd"/></g><path fill="#947f57" d="M 204.679688 108.320312 L 171.703125 108.320312 L 171.703125 115.617188 L 202.652344 115.617188 L 202.652344 162.933594 C 202.652344 171.199219 195.789062 178.042969 187.496094 178.042969 C 179.199219 178.042969 172.339844 171.199219 172.339844 162.933594 L 165.019531 162.933594 C 165.019531 175.226562 175.164062 185.339844 187.496094 185.339844 C 199.828125 185.339844 209.96875 175.226562 209.96875 162.933594 L 209.96875 108.320312 Z M 204.679688 108.320312 " fill-opacity="1" fill-rule="evenodd"/></svg>